<svg width="22" height="22" xmlns="http://www.w3.org/2000/svg"><g fill="none" fill-rule="evenodd"><path d="M10.9 21.2c5.5 0 9.9-4.4 9.9-9.9s-4.4-9.9-9.9-9.9S1 5.8 1 11.3c0 5.4 4.4 9.9 9.9 9.9z" stroke="#EABF54" stroke-linecap="round" stroke-linejoin="round"/><path d="M7.2 12.5c.7 0 1.2-.6 1.2-1.2 0-.7-.6-1.2-1.2-1.2S6 10.7 6 11.3c-.1.6.5 1.2 1.2 1.2zm7.4 0c.7 0 1.2-.6 1.2-1.2 0-.7-.6-1.2-1.2-1.2-.7 0-1.2.6-1.2 1.2s.5 1.2 1.2 1.2z" fill="#EABF54" fill-rule="nonzero"/><path d="M13.6 15.4c-.8.5-1.8.8-2.7.8-.9 0-1.9-.3-2.7-.8m2.7-14.1C9.2 3.4 9.2 5.4 9.2 5.4c0 .4.2.9.5 1.2.3.3.7.5 1.2.5s.9-.2 1.2-.5c.3-.3.5-.7.5-1.2" stroke="#EABF54" stroke-linecap="round" stroke-linejoin="round"/></g></svg>