<svg width="19" height="19" xmlns="http://www.w3.org/2000/svg"><path d="M9.5 18V6.3m0 5.2l-3.9-2m3.9 0l3.9-2m-3.5 6.4c.6.4 1.3.7 2 .8.7.1 1.4.1 2.1-.1.7-.2 1.4-.5 1.9-.9.6-.4 1.1-1 1.4-1.6.4-.6.6-1.3.6-2 .1-.7 0-1.4-.2-2.1-.2-.7-.6-1.3-1.1-1.9-.5-.5-1.1-1-1.7-1.3-.1-.1-.3-.2-.3-.3-.4-1-1.1-1.9-2-2.5-.9-.6-2-.9-3.1-.9s-2.2.3-3.1.9c-.9.6-1.6 1.5-2 2.5-.1.1-.2.3-.3.3-.7.3-1.2.7-1.7 1.3-.5.5-.9 1.2-1.1 1.9-.2.7-.3 1.4-.2 2.1.1.7.3 1.4.6 2 .4.6.8 1.2 1.4 1.6.6.4 1.2.7 1.9.9.7.2 1.4.2 2.1.1.7-.1 1.4-.4 2-.8.1-.1.2-.1.4-.1s.3 0 .4.1z" stroke="#6FB280" fill="none" stroke-linecap="round" stroke-linejoin="round"/></svg>